<svg width="119" height="119" viewBox="0 0 119 119" fill="none" xmlns="http://www.w3.org/2000/svg">
<path d="M78.5401 59.5L65.4501 77.35L59.5001 69.02L53.5501 77.35L40.4601 59.5C17.8501 65.45 17.8501 77.35 17.8501 100.555C17.8501 100.555 35.7001 107.1 55.9301 107.1H63.0701C83.3001 106.505 101.15 100.555 101.15 100.555C101.15 77.35 101.15 65.45 78.5401 59.5ZM59.5001 63.665L49.9801 59.5L59.5001 69.02L69.0201 59.5L59.5001 63.665Z" fill="white"/>
<path d="M59.5 12.4956C48.195 12.4956 41.65 23.2056 43.435 35.1056C45.22 47.0056 51.17 55.3356 59.5 55.3356C67.83 55.3356 73.78 47.0056 75.565 35.1056C77.35 22.6106 70.805 12.4956 59.5 12.4956Z" fill="white"/>
</svg>
