<svg width="22" height="23" viewBox="0 0 22 23" fill="none" xmlns="http://www.w3.org/2000/svg">
<path fill-rule="evenodd" clip-rule="evenodd" d="M22 12.7031V10.2031L18.9514 9.20312L18.2443 7.5L19.6271 4.625L17.8514 2.85938L15.0071 4.28125L13.2943 3.57812L12.21 0.578125H9.69571L8.70571 3.60937L6.96143 4.3125L4.07 2.9375L2.29429 4.70312L3.72429 7.53125L3.01714 9.23437L0 10.2969V12.7812L3.04857 13.7812L3.75571 15.4844L2.37286 18.3594L4.14857 20.125L6.99286 18.7031L8.70571 19.4062L9.79 22.4062H12.2886L13.2786 19.375L15.0229 18.6719L17.9143 20.0469L19.69 18.2812L18.2443 15.4531L18.9829 13.75L22 12.6719V12.7031ZM11 16.1875C8.39143 16.1875 6.28571 14.0937 6.28571 11.5C6.28571 8.90625 8.39143 6.8125 11 6.8125C13.6086 6.8125 15.7143 8.90625 15.7143 11.5C15.7143 14.0937 13.6086 16.1875 11 16.1875Z" fill="white"/>
</svg>
