<svg width="23" height="14" viewBox="0 0 23 14" fill="none" xmlns="http://www.w3.org/2000/svg">
<path d="M11.5 2.91667C9.59459 2.91667 8.05 4.74469 8.05 7C8.05 9.25495 9.59459 11.0833 11.5 11.0833C13.4047 11.0833 14.95 9.25568 14.95 7C14.95 4.74469 13.4054 2.91667 11.5 2.91667ZM12.9375 9.04167C12.9375 9.20281 12.8088 9.33333 12.65 9.33333H10.35C10.1912 9.33333 10.0625 9.20281 10.0625 9.04167V8.45833C10.0625 8.29719 10.1912 8.16667 10.35 8.16667H10.925V6.14542L10.9081 6.15672C10.8767 6.17798 10.8415 6.19275 10.8045 6.20019C10.7674 6.20763 10.7293 6.20758 10.6923 6.20007C10.6553 6.19255 10.6201 6.1777 10.5887 6.15638C10.5574 6.13505 10.5305 6.10766 10.5096 6.07578L10.1904 5.59052C10.1695 5.55867 10.1549 5.52293 10.1476 5.48537C10.1403 5.4478 10.1403 5.40913 10.1477 5.37158C10.1551 5.33403 10.1698 5.29833 10.1908 5.26652C10.2118 5.23471 10.2388 5.20741 10.2702 5.1862L10.8211 4.81359C10.9628 4.71778 11.1292 4.66666 11.2995 4.66667H11.7875C11.9463 4.66667 12.075 4.79719 12.075 4.95833V8.16667H12.65C12.8088 8.16667 12.9375 8.29719 12.9375 8.45833V9.04167ZM21.85 0H1.15C0.514984 0 0 0.522448 0 1.16667V12.8333C0 13.4776 0.514984 14 1.15 14H21.85C22.485 14 23 13.4776 23 12.8333V1.16667C23 0.522448 22.485 0 21.85 0ZM21.275 9.91667C20.0046 9.91667 18.975 10.9612 18.975 12.25H4.025C4.025 10.9612 2.99539 9.91667 1.725 9.91667V4.08333C2.99539 4.08333 4.025 3.0388 4.025 1.75H18.975C18.975 3.0388 20.0046 4.08333 21.275 4.08333V9.91667Z" fill="white"/>
</svg>
