<svg width="106" height="106" viewBox="0 0 106 106" fill="none" xmlns="http://www.w3.org/2000/svg">
<path d="M48.5879 44.1667H57.4212V66.25H48.5879V44.1667ZM48.5835 70.6667H57.4168V79.5H48.5835V70.6667Z" fill="#AAAAAA"/>
<path d="M60.8084 18.55C59.2714 15.6571 56.2769 13.8595 52.9997 13.8595C49.7225 13.8595 46.728 15.6571 45.191 18.5544L12.7815 79.7827C12.0624 81.1272 11.7061 82.636 11.7479 84.1603C11.7898 85.6845 12.2282 87.1715 13.02 88.4747C13.8004 89.7837 14.9088 90.8665 16.2356 91.6163C17.5624 92.3661 19.0618 92.7568 20.5858 92.75H85.4136C88.5406 92.75 91.3717 91.1512 92.9838 88.4747C93.7744 87.1711 94.2121 85.6842 94.2539 84.1602C94.2957 82.6362 93.9402 81.1276 93.2223 79.7827L60.8084 18.55ZM20.5858 83.9167L52.9997 22.6884L85.4357 83.9167H20.5858Z" fill="#AAAAAA"/>
</svg>
