<svg width="79" height="79" viewBox="0 0 79 79" fill="none" xmlns="http://www.w3.org/2000/svg">
<path d="M70.3644 26.0189C70.4535 25.3446 70.5 24.6704 70.5 24C70.5 14.7814 62.1959 7.384 52.9811 8.63562C50.2957 3.85775 45.1807 0.75 39.5 0.75C33.8193 0.75 28.7043 3.85775 26.0189 8.63562C16.7847 7.384 8.5 14.7814 8.5 24C8.5 24.6704 8.5465 25.3446 8.63562 26.0189C3.85775 28.7081 0.75 33.8231 0.75 39.5C0.75 45.1769 3.85775 50.2919 8.63562 52.9811C8.54623 53.6504 8.50092 54.3248 8.5 55C8.5 64.2186 16.7847 71.5966 26.0189 70.3644C28.7043 75.1423 33.8193 78.25 39.5 78.25C45.1807 78.25 50.2957 75.1423 52.9811 70.3644C62.1959 71.5966 70.5 64.2186 70.5 55C70.5 54.3296 70.4535 53.6554 70.3644 52.9811C75.1423 50.2919 78.25 45.1769 78.25 39.5C78.25 33.8231 75.1423 28.7081 70.3644 26.0189ZM35.4506 56.612L21.241 42.2202L26.759 36.7798L35.5049 45.638L52.272 28.9988L57.728 34.5013L35.4506 56.612Z" fill="#0075E1"/>
</svg>
