<svg width="237" height="41" viewBox="0 0 237 41" fill="none" xmlns="http://www.w3.org/2000/svg">
<path d="M8.48922 4.18C7.16922 1.54 5.30922 0.399998 3.68922 0.399998C1.76922 0.399998 0.149219 2.02 0.149219 4.48V40H1.64922V8.08C1.64922 7.54 1.82922 7.12 2.06922 7.12C2.30922 7.12 2.60922 7.36 2.90922 8.02L18.6892 40H20.0692L36.0292 7.84C36.1492 7.54 36.5692 7.12 36.8692 7.12C37.1092 7.12 37.2892 7.36 37.2892 8.02V40H44.0092V5.14C44.0092 2.2 42.5092 0.459998 40.6492 0.459998C39.0892 0.459998 37.2292 1.66 35.8492 4.48L22.3492 31.6L8.48922 4.18ZM74.7888 40L74.0088 38.5H66.7488C61.5888 38.5 59.3088 35.92 59.3088 31.54C59.3088 23.74 65.9688 22.18 72.4488 22.18H77.1888V40H83.3687V17.92C83.3687 10.36 76.1688 7.9 69.3288 7.9C63.9888 7.9 58.6488 8.44 53.9688 10.9L54.3888 12.52C58.1088 10.48 62.6688 9.34 68.4288 9.34C74.4888 9.34 77.1888 13.12 77.1888 18.88V20.68H72.5688C66.2688 20.68 52.3488 21.64 52.3488 30.58C52.3488 37.72 58.8288 40 65.0088 40H74.7888ZM120.379 11.56C117.559 9.64 112.879 7.9 107.119 7.9C96.9189 7.9 89.3589 14.8 89.3589 24.4C89.3589 34 96.9189 40.9 107.119 40.9C113.239 40.9 118.099 38.98 121.159 36.28L120.619 34.78C117.379 37.6 112.999 39.28 107.899 39.28C102.379 39.28 96.2589 35.26 96.3189 24.4C96.3189 17.08 99.1989 9.34 107.059 9.34C112.579 9.34 116.779 11.02 119.959 13.18L120.379 11.56ZM155.945 11.56C153.125 9.64 148.445 7.9 142.685 7.9C132.485 7.9 124.925 14.8 124.925 24.4C124.925 34 132.485 40.9 142.685 40.9C148.805 40.9 153.665 38.98 156.725 36.28L156.185 34.78C152.945 37.6 148.565 39.28 143.465 39.28C137.945 39.28 131.825 35.26 131.885 24.4C131.885 17.08 134.765 9.34 142.625 9.34C148.145 9.34 152.345 11.02 155.525 13.18L155.945 11.56ZM160.732 24.4C160.732 34 168.292 40.9 178.492 40.9C188.752 40.9 196.312 34 196.312 24.4C196.312 14.8 188.752 7.9 178.492 7.9C168.292 7.9 160.732 14.8 160.732 24.4ZM167.692 24.4C167.692 17.32 169.552 9.04 178.492 9.04C187.492 9.04 189.352 17.32 189.352 24.4C189.352 31.48 187.492 39.76 178.492 39.76C169.552 39.76 167.692 31.48 167.692 24.4ZM200.751 24.4C200.751 34 208.311 40.9 218.511 40.9C228.771 40.9 236.331 34 236.331 24.4C236.331 14.8 228.771 7.9 218.511 7.9C208.311 7.9 200.751 14.8 200.751 24.4ZM207.711 24.4C207.711 17.32 209.571 9.04 218.511 9.04C227.511 9.04 229.371 17.32 229.371 24.4C229.371 31.48 227.511 39.76 218.511 39.76C209.571 39.76 207.711 31.48 207.711 24.4Z" fill="white"/>
</svg>
