<svg width="20" height="21" viewBox="0 0 20 21" fill="none" xmlns="http://www.w3.org/2000/svg">
<path d="M15.3927 10.2491C17.7371 10.2491 19.6375 9.17146 19.6375 7.84218C19.6375 6.5129 17.7371 5.4353 15.3927 5.4353C13.0484 5.4353 11.1479 6.5129 11.1479 7.84218C11.1479 9.17146 13.0484 10.2491 15.3927 10.2491Z" fill="white"/>
<path fill-rule="evenodd" clip-rule="evenodd" d="M15.4562 11.6337C12.4202 11.6337 11.2114 10.3638 11.2114 9.62817V12.7792C11.2114 14.1089 13.112 15.1849 15.4562 15.1849C17.8029 15.1849 19.7034 14.1089 19.7034 12.7792V9.70381C19.7034 10.4406 18.4934 11.6337 15.4562 11.6337Z" fill="white"/>
<path fill-rule="evenodd" clip-rule="evenodd" d="M15.4562 16.5024C12.7404 16.5024 11.2114 15.2812 11.2114 14.5456V17.6674C11.2114 18.9971 13.112 20.0742 15.4562 20.0742C17.8029 20.0742 19.7034 18.9971 19.7034 17.6674V14.5078C19.7034 15.2434 18.1732 16.5024 15.4562 16.5024Z" fill="white"/>
<path d="M4.95984 5.36942C7.61737 5.36942 9.77173 4.29182 9.77173 2.96254C9.77173 1.63326 7.61737 0.555664 4.95984 0.555664C2.30231 0.555664 0.147949 1.63326 0.147949 2.96254C0.147949 4.29182 2.30231 5.36942 4.95984 5.36942Z" fill="white"/>
<path fill-rule="evenodd" clip-rule="evenodd" d="M5.11267 6.75406C1.67211 6.75406 0.300781 5.48414 0.300781 4.74854V7.89956C0.300781 9.22925 2.45556 10.3052 5.11267 10.3052C7.77223 10.3052 9.92578 9.22925 9.92578 7.89956V4.82417C9.92578 5.56099 8.55323 6.75406 5.11267 6.75406Z" fill="white"/>
<path fill-rule="evenodd" clip-rule="evenodd" d="M5.11267 11.6227C2.03389 11.6227 0.300781 10.4016 0.300781 9.66599V12.7877C0.300781 14.1174 2.45556 15.1946 5.11267 15.1946C7.77223 15.1946 9.92578 14.1174 9.92578 12.7877V9.62817C9.92578 10.3638 8.19023 11.6227 5.11267 11.6227Z" fill="white"/>
<path fill-rule="evenodd" clip-rule="evenodd" d="M5.11267 16.5024C2.03389 16.5024 0.300781 15.2812 0.300781 14.5456V17.6674C0.300781 18.9971 2.45556 20.0742 5.11267 20.0742C7.77223 20.0742 9.92578 18.9971 9.92578 17.6674V14.5078C9.92578 15.2434 8.19023 16.5024 5.11267 16.5024Z" fill="white"/>
</svg>
