<svg width="26" height="19" viewBox="0 0 26 19" fill="none" xmlns="http://www.w3.org/2000/svg">
<path d="M3.9 8.1875C5.33406 8.1875 6.5 7.01035 6.5 5.5625C6.5 4.11465 5.33406 2.9375 3.9 2.9375C2.46594 2.9375 1.3 4.11465 1.3 5.5625C1.3 7.01035 2.46594 8.1875 3.9 8.1875ZM22.1 8.1875C23.5341 8.1875 24.7 7.01035 24.7 5.5625C24.7 4.11465 23.5341 2.9375 22.1 2.9375C20.6659 2.9375 19.5 4.11465 19.5 5.5625C19.5 7.01035 20.6659 8.1875 22.1 8.1875ZM23.4 9.5H20.8C20.085 9.5 19.4391 9.79121 18.9678 10.2629C20.605 11.1693 21.7669 12.8059 22.0187 14.75H24.7C25.4191 14.75 26 14.1635 26 13.4375V12.125C26 10.6771 24.8341 9.5 23.4 9.5ZM13 9.5C15.5147 9.5 17.55 7.44512 17.55 4.90625C17.55 2.36738 15.5147 0.3125 13 0.3125C10.4853 0.3125 8.45 2.36738 8.45 4.90625C8.45 7.44512 10.4853 9.5 13 9.5ZM16.12 10.8125H15.7828C14.9378 11.2227 13.9994 11.4688 13 11.4688C12.0006 11.4688 11.0662 11.2227 10.2172 10.8125H9.88C7.29625 10.8125 5.2 12.9289 5.2 15.5375V16.7188C5.2 17.8057 6.07344 18.6875 7.15 18.6875H18.85C19.9266 18.6875 20.8 17.8057 20.8 16.7188V15.5375C20.8 12.9289 18.7037 10.8125 16.12 10.8125ZM7.03219 10.2629C6.56094 9.79121 5.915 9.5 5.2 9.5H2.6C1.16594 9.5 0 10.6771 0 12.125V13.4375C0 14.1635 0.580937 14.75 1.3 14.75H3.97719C4.23312 12.8059 5.395 11.1693 7.03219 10.2629Z" fill="white"/>
</svg>
