<svg width="119" height="119" viewBox="0 0 119 119" fill="none" xmlns="http://www.w3.org/2000/svg">
<path d="M64.4585 34.7085H54.5418V54.5418H34.7085V64.4585H54.5418V84.2918H64.4585V64.4585H84.2918V54.5418H64.4585V34.7085Z" fill="white"/>
<path d="M59.4998 9.9165C32.1596 9.9165 9.9165 32.1596 9.9165 59.4998C9.9165 86.8401 32.1596 109.083 59.4998 109.083C86.8401 109.083 109.083 86.8401 109.083 59.4998C109.083 32.1596 86.8401 9.9165 59.4998 9.9165ZM59.4998 99.1665C37.6286 99.1665 19.8332 81.371 19.8332 59.4998C19.8332 37.6286 37.6286 19.8332 59.4998 19.8332C81.371 19.8332 99.1665 37.6286 99.1665 59.4998C99.1665 81.371 81.371 99.1665 59.4998 99.1665Z" fill="white"/>
</svg>
