<svg width="49" height="49" viewBox="0 0 49 49" fill="none" xmlns="http://www.w3.org/2000/svg">
<path d="M42.8541 49H6.1399C4.45079 49 3.00868 48.4019 1.81356 47.2056C0.618435 46.0093 0.020874 44.5658 0.020874 42.875V6.125C0.020874 4.43424 0.618435 2.99072 1.81356 1.79443C3.00868 0.598145 4.45079 0 6.1399 0H42.8541C44.5432 0 45.9853 0.598145 47.1804 1.79443C48.3755 2.99072 48.9731 4.43424 48.9731 6.125V42.875C48.9731 44.5658 48.3755 46.0093 47.1804 47.2056C45.9853 48.4019 44.5432 49 42.8541 49ZM31.1897 22.5859C31.0941 22.5859 30.9825 22.578 30.855 22.562C30.7276 22.5461 30.5045 22.5062 30.1858 22.4424C29.8671 22.3786 29.5802 22.2909 29.3253 22.1792C29.0703 22.0675 28.8393 21.8761 28.6321 21.605C28.425 21.3338 28.3214 21.0228 28.3214 20.6719C28.3214 20.2572 28.4409 19.8823 28.6799 19.5474C28.9189 19.2124 29.1819 18.9333 29.4687 18.71C29.7555 18.4867 30.0185 18.0799 30.2575 17.4897C30.4965 16.8996 30.616 16.1738 30.616 15.3125V12.25C30.616 11.3887 30.377 10.6629 29.8989 10.0728C29.4209 9.48258 28.895 9.1875 28.3214 9.1875C27.7796 9.1875 27.3254 9.37093 26.9589 9.73779C26.5924 10.1047 26.4092 10.5592 26.4092 11.1016V12.0586C26.4092 12.7285 26.1941 13.4064 25.7638 14.0923C25.3336 14.7782 24.8396 15.3763 24.2819 15.8867C23.7241 16.3971 23.0788 17.0112 22.3458 17.729C21.6128 18.4468 21.055 19.1087 20.6726 19.7148C20.4495 20.002 20.1308 20.3608 19.7165 20.7915C19.3022 21.2222 18.6967 21.7406 17.8999 22.3467C17.1032 22.9528 16.1072 23.4632 14.9121 23.8779C13.717 24.2926 12.4501 24.5 11.1116 24.5C11.0479 24.5 11.0001 24.516 10.9682 24.5479C10.522 24.6117 10.1157 25.0822 9.74917 25.9595C9.38267 26.8368 9.19942 27.6263 9.19942 28.3281V35.9844C9.19942 36.5905 9.3747 37.061 9.72527 37.396C10.0758 37.731 10.538 37.8984 11.1116 37.8984C11.749 37.8984 13.0238 38.2174 14.936 38.8555C16.8482 39.4935 18.123 39.8125 18.7604 39.8125H34.058C34.5679 39.8125 35.0141 39.6211 35.3965 39.2383C35.7789 38.8555 35.9702 38.4009 35.9702 37.8745C35.9702 37.3481 35.7789 36.9015 35.3965 36.5347C35.0141 36.1678 34.5679 35.9844 34.058 35.9844H35.9702C36.512 35.9844 36.9661 35.793 37.3326 35.4102C37.6991 35.0273 37.8824 34.5728 37.8824 34.0464C37.8824 33.52 37.6991 33.0734 37.3326 32.7065C36.9661 32.3397 36.512 32.1562 35.9702 32.1562C36.512 32.1562 36.9661 31.9648 37.3326 31.582C37.6991 31.1992 37.8824 30.7446 37.8824 30.2183C37.8824 29.6919 37.6991 29.2453 37.3326 28.8784C36.9661 28.5116 36.512 28.3281 35.9702 28.3281H37.8824C38.4241 28.3281 38.8783 28.1367 39.2448 27.7539C39.6113 27.3711 39.7946 26.9245 39.7946 26.4141C39.7946 25.4251 38.942 24.5399 37.237 23.7583C35.5319 22.9767 33.5162 22.5859 31.1897 22.5859Z" fill="#0075E1"/>
</svg>
