<svg width="91" height="83" viewBox="0 0 91 83" fill="none" xmlns="http://www.w3.org/2000/svg">
<path d="M82.625 16.75H51.3162L64.8875 3.17875L62 0.25L45.5 16.75L29 0.25L26.0712 3.17875L39.6838 16.75H8.375C6.18696 16.75 4.08854 17.6192 2.54137 19.1664C0.994194 20.7135 0.125 22.812 0.125 25V74.5C0.125 79.0375 3.8375 82.75 8.375 82.75H82.625C87.1625 82.75 90.875 79.0375 90.875 74.5V25C90.875 22.812 90.0058 20.7135 88.4586 19.1664C86.9115 17.6192 84.813 16.75 82.625 16.75ZM82.625 74.5H8.375V25H82.625V74.5ZM33.125 33.25V66.25L62 49.75L33.125 33.25Z" fill="#E20000"/>
</svg>
