<svg width="50" height="50" viewBox="0 0 50 50" fill="none" xmlns="http://www.w3.org/2000/svg">
<path d="M21.25 42.25C25.9093 42.249 30.4344 40.6893 34.1046 37.819L45.6441 49.3585L49.3559 45.6468L37.8164 34.1073C40.6881 30.4366 42.2489 25.9105 42.25 21.25C42.25 9.67113 32.8289 0.25 21.25 0.25C9.67113 0.25 0.25 9.67113 0.25 21.25C0.25 32.8289 9.67113 42.25 21.25 42.25ZM21.25 5.5C29.9361 5.5 37 12.5639 37 21.25C37 29.9361 29.9361 37 21.25 37C12.5639 37 5.5 29.9361 5.5 21.25C5.5 12.5639 12.5639 5.5 21.25 5.5Z" fill="#0075E1"/>
</svg>
