<svg width="51" height="51" viewBox="0 0 51 51" fill="none" xmlns="http://www.w3.org/2000/svg">
<path d="M49.4516 26.3137L27.3266 1.73036C26.3949 0.692947 24.6052 0.692947 23.6735 1.73036L1.5485 26.3137C1.23004 26.6667 1.021 27.1046 0.946809 27.5742C0.872615 28.0438 0.936461 28.5249 1.13058 28.9589C1.52392 29.8463 2.404 30.4167 3.37504 30.4167H8.29171V47.625C8.29171 48.277 8.55071 48.9023 9.01174 49.3633C9.47276 49.8243 10.0981 50.0833 10.75 50.0833H18.125C18.777 50.0833 19.4023 49.8243 19.8633 49.3633C20.3244 48.9023 20.5834 48.277 20.5834 47.625V37.7917H30.4167V47.625C30.4167 48.277 30.6757 48.9023 31.1367 49.3633C31.5978 49.8243 32.223 50.0833 32.875 50.0833H40.25C40.902 50.0833 41.5273 49.8243 41.9883 49.3633C42.4494 48.9023 42.7084 48.277 42.7084 47.625V30.4167H47.625C48.1011 30.4187 48.5675 30.2821 48.9674 30.0237C49.3672 29.7652 49.6832 29.396 49.8768 28.9611C50.0705 28.5261 50.1334 28.0442 50.0579 27.5741C49.9823 27.1041 49.7717 26.6661 49.4516 26.3137Z" fill="#0075E1"/>
</svg>
