<svg width="51" height="51" viewBox="0 0 51 51" fill="none" xmlns="http://www.w3.org/2000/svg">
<path d="M49.4515 26.3137L27.3265 1.73036C26.3948 0.692947 24.6052 0.692947 23.6735 1.73036L1.54846 26.3137C1.23 26.6667 1.02096 27.1046 0.946767 27.5742C0.872573 28.0438 0.936419 28.5249 1.13054 28.9589C1.52387 29.8463 2.40396 30.4167 3.375 30.4167H8.29167V47.625C8.29167 48.277 8.55067 48.9023 9.0117 49.3633C9.47272 49.8243 10.098 50.0833 10.75 50.0833H18.125C18.777 50.0833 19.4023 49.8243 19.8633 49.3633C20.3243 48.9023 20.5833 48.277 20.5833 47.625V37.7917H30.4167V47.625C30.4167 48.277 30.6757 48.9023 31.1367 49.3633C31.5977 49.8243 32.223 50.0833 32.875 50.0833H40.25C40.902 50.0833 41.5273 49.8243 41.9883 49.3633C42.4493 48.9023 42.7083 48.277 42.7083 47.625V30.4167H47.625C48.1011 30.4187 48.5675 30.2821 48.9673 30.0237C49.3672 29.7652 49.6832 29.396 49.8768 28.9611C50.0704 28.5261 50.1333 28.0442 50.0578 27.5741C49.9823 27.1041 49.7717 26.6661 49.4515 26.3137Z" fill="#3C3C3C"/>
</svg>
