<svg width="50" height="50" viewBox="0 0 50 50" fill="none" xmlns="http://www.w3.org/2000/svg">
<path d="M25 0.625C11.5598 0.625 0.625 11.5598 0.625 25C0.625 38.4402 11.5598 49.375 25 49.375C38.4402 49.375 49.375 38.4402 49.375 25C49.375 11.5598 38.4402 0.625 25 0.625ZM34.375 26.875H26.875V34.375C26.875 34.8723 26.6775 35.3492 26.3258 35.7008C25.9742 36.0525 25.4973 36.25 25 36.25C24.5027 36.25 24.0258 36.0525 23.6742 35.7008C23.3225 35.3492 23.125 34.8723 23.125 34.375V26.875H15.625C15.1277 26.875 14.6508 26.6775 14.2992 26.3258C13.9475 25.9742 13.75 25.4973 13.75 25C13.75 24.5027 13.9475 24.0258 14.2992 23.6742C14.6508 23.3225 15.1277 23.125 15.625 23.125H23.125V15.625C23.125 15.1277 23.3225 14.6508 23.6742 14.2992C24.0258 13.9475 24.5027 13.75 25 13.75C25.4973 13.75 25.9742 13.9475 26.3258 14.2992C26.6775 14.6508 26.875 15.1277 26.875 15.625V23.125H34.375C34.8723 23.125 35.3492 23.3225 35.7008 23.6742C36.0525 24.0258 36.25 24.5027 36.25 25C36.25 25.4973 36.0525 25.9742 35.7008 26.3258C35.3492 26.6775 34.8723 26.875 34.375 26.875Z" fill="#0075E1"/>
</svg>
