<svg width="36" height="38" viewBox="0 0 36 38" fill="none" xmlns="http://www.w3.org/2000/svg">
<path d="M3.33799 37.458L0.709991 36.29C1.43999 34.538 3.77599 33.516 6.25799 32.348C8.73999 31.18 11.806 29.866 11.806 28.26V26.07C10.93 25.34 9.46999 23.734 9.17799 21.398C8.44799 20.668 7.27999 19.354 7.27999 17.602C7.27999 16.58 7.71799 15.704 8.00999 15.12C7.71799 13.952 7.42599 11.762 7.42599 10.01C7.42599 4.31602 11.368 0.52002 17.646 0.52002C19.398 0.52002 21.588 0.958019 22.756 2.27202C25.53 2.85602 27.866 6.06802 27.866 10.01C27.866 12.492 27.428 14.536 27.136 15.558C27.428 15.996 27.72 16.726 27.72 17.602C27.72 19.5 26.698 20.814 25.822 21.398C25.53 23.734 24.216 25.194 23.34 25.924V28.26C23.34 29.574 25.968 30.596 28.304 31.472C31.078 32.494 33.998 33.662 35.02 35.998L32.246 37.02C31.808 35.852 29.472 34.976 27.282 34.246C24.07 33.078 20.42 31.764 20.42 28.406V24.61L21.15 24.172C21.15 24.172 22.902 23.004 22.902 20.668V19.646L23.778 19.208C23.924 19.208 24.654 18.77 24.654 17.602C24.654 17.31 24.362 16.872 24.216 16.726L23.632 16.142L23.924 15.412C23.924 15.412 24.654 13.076 24.654 10.156C24.654 7.38202 23.048 5.33802 21.734 5.33802H20.858L20.42 4.60802C20.42 4.02402 19.398 3.44002 17.646 3.44002C13.12 3.44002 10.346 5.92202 10.346 10.01C10.346 11.908 11.076 15.12 11.076 15.12L11.222 15.85L10.638 16.58C10.492 16.58 10.2 17.018 10.2 17.602C10.2 18.332 11.076 19.208 11.514 19.5L12.098 19.938V20.668C12.098 22.858 13.996 24.026 13.996 24.172L14.726 24.61V28.406C14.726 31.91 10.93 33.662 7.42599 35.122C5.81999 35.706 3.62999 36.728 3.33799 37.458Z" fill="#3B3B3B"/>
</svg>
