<svg width="79" height="109" viewBox="0 0 79 109" fill="none" xmlns="http://www.w3.org/2000/svg">
<path d="M39.5 25.25V39.875L59 20.375L39.5 0.875V15.5C17.9525 15.5 0.5 32.9525 0.5 54.5C0.5 62.1538 2.7425 69.2712 6.545 75.2675L13.6625 68.15C11.4067 63.9549 10.2338 59.2631 10.25 54.5C10.25 38.3638 23.3638 25.25 39.5 25.25ZM72.455 33.7325L65.3375 40.85C67.4825 44.945 68.75 49.5762 68.75 54.5C68.75 70.6363 55.6362 83.75 39.5 83.75V69.125L20 88.625L39.5 108.125V93.5C61.0475 93.5 78.5 76.0475 78.5 54.5C78.5 46.8462 76.2575 39.7287 72.455 33.7325Z" fill="#FCB500"/>
</svg>
